<svg version="1.1" id="Layer_1" xmlns="http://www.w3.org/2000/svg" xmlns:xlink="http://www.w3.org/1999/xlink" x="0px" y="0px"
	 width="100%" viewBox="0 0 1024 672" enable-background="new 0 0 1024 672" xml:space="preserve">
<path fill="#000000" opacity="1.000000" stroke="none" 
	d="
M767.758301,600.349182 
	C723.462402,600.380676 679.638977,600.350220 635.815735,600.437256 
	C595.825073,600.516724 555.834656,600.815674 515.844055,600.854492 
	C437.696167,600.930298 359.548157,600.902893 281.400208,600.882874 
	C274.240540,600.881042 267.081116,600.536560 259.921265,600.523438 
	C256.470001,600.517090 255.341141,599.203857 255.525528,595.683716 
	C257.506104,557.873230 261.776398,520.395264 271.219391,483.633331 
	C273.388397,475.189301 276.912323,467.309204 280.901581,459.596832 
	C288.943268,444.049896 302.150879,434.824799 318.065216,428.721832 
	C343.109558,419.117615 368.494171,410.463928 393.890198,401.874237 
	C402.385864,399.000732 409.446594,394.534027 415.832672,388.550140 
	C425.318268,379.661865 434.750183,370.723938 443.411346,361.008667 
	C444.685577,359.579346 445.931000,358.000183 449.274261,356.801666 
	C434.722534,398.806519 445.203949,434.581024 472.963898,467.377106 
	C484.615540,451.993103 496.000061,436.961761 507.667786,421.556519 
	C501.316681,417.522369 495.405670,413.859528 489.588562,410.053253 
	C478.364166,402.708893 468.327606,394.030579 459.858887,383.563202 
	C453.761536,376.026825 449.988647,367.672577 450.821869,357.827087 
	C451.663818,347.879364 449.638641,339.190918 443.723785,330.703339 
	C436.738556,320.679840 433.360138,308.775818 430.672638,296.853790 
	C429.931274,293.565063 428.573181,291.234863 425.347076,289.646118 
	C420.717529,287.366241 417.699615,283.224091 415.417114,278.710236 
	C408.549896,265.129669 404.571106,250.804031 404.897766,235.464859 
	C404.995972,230.852188 406.116425,226.419785 409.331360,223.023529 
	C412.015350,220.188217 412.087585,217.335861 411.153198,213.859924 
	C408.337311,203.384521 406.288544,192.732376 405.829559,181.885956 
	C403.733429,132.355438 434.900787,99.979080 477.521423,87.882454 
	C502.330414,80.841156 527.277893,81.357269 551.496277,91.466988 
	C564.593628,96.934357 575.517883,105.052162 582.801392,117.515152 
	C583.748596,119.135826 584.798340,120.360451 586.763428,120.996353 
	C606.688293,127.444214 615.371094,142.657608 618.192749,162.118896 
	C620.743713,179.713104 617.835938,196.988983 614.275085,214.152313 
	C613.645996,217.184250 613.684875,219.341263 616.249146,221.622162 
	C621.272217,226.090073 622.208557,232.350449 621.884094,238.609879 
	C621.152771,252.719208 618.044250,266.277649 611.391724,278.887329 
	C608.994995,283.430267 605.719788,287.144409 601.205322,289.583282 
	C598.812012,290.876221 597.599304,292.554413 596.960999,295.258057 
	C593.183350,311.259644 587.485229,326.480927 577.835144,339.986237 
	C576.724976,341.539948 576.166016,343.217377 576.195679,345.118988 
	C576.219116,346.618286 575.999817,348.146729 576.215942,349.613953 
	C579.356445,370.931732 568.265930,385.542877 553.207520,398.164856 
	C544.006042,405.877594 534.257507,412.878052 523.781860,418.793396 
	C521.067932,420.325867 519.252991,422.107880 521.758057,424.994812 
	C532.915955,437.853607 541.955750,452.309509 552.559387,465.581024 
	C552.848022,465.942352 553.380249,466.109131 554.269470,466.656067 
	C582.379272,434.989685 591.861816,399.243500 578.281677,358.145691 
	C581.269470,357.589172 582.258850,359.634521 583.515625,360.925720 
	C594.439514,372.148560 605.341675,383.380707 617.262512,393.584808 
	C620.502014,396.357758 623.946228,398.408661 627.943665,399.804840 
	C652.316711,408.317749 676.665833,416.899414 701.007690,425.501312 
	C703.830750,426.498932 706.501343,427.940155 709.341614,428.875092 
	C734.584473,437.184601 747.812134,456.147858 755.290344,480.331757 
	C762.514465,503.694183 765.403137,527.819336 768.218323,551.972656 
	C769.875977,566.195129 771.608337,580.406677 772.023499,594.736084 
	C772.102112,597.449707 772.270325,600.353210 767.758301,600.349182 
M464.104187,502.480927 
	C469.943237,523.244568 475.782288,544.008179 481.759857,565.264282 
	C483.911346,563.585388 483.713806,562.324951 483.893921,561.215637 
	C488.315979,533.979614 492.476929,506.715637 499.323212,479.911682 
	C501.524109,471.295013 496.825745,463.351349 493.567657,455.287354 
	C492.332855,455.975555 491.773926,456.110382 491.502533,456.465118 
	C488.167419,460.824829 484.813538,465.172424 481.582520,469.609070 
	C473.478180,480.737610 472.170624,480.748840 464.016602,469.391479 
	C460.594391,464.624847 457.237427,459.811371 453.850800,455.019226 
	C453.450287,455.203644 453.049744,455.388092 452.649231,455.572510 
	C455.177368,471.226013 459.892517,486.381104 464.104187,502.480927 
M542.878174,562.139160 
	C543.269653,562.989807 542.903381,564.194397 544.055969,564.701599 
	C549.043274,556.921936 574.293945,462.639343 572.929199,456.449615 
	C568.072693,461.505463 564.562378,467.382568 560.559509,472.881226 
	C555.829346,479.379028 553.196350,479.518280 548.336670,473.271667 
	C544.655762,468.540222 541.252075,463.593323 537.575684,458.858246 
	C536.312988,457.231964 533.796692,454.657715 532.661987,457.920624 
	C530.252625,464.848572 525.769531,471.537445 527.700378,479.419067 
	C534.323792,506.455200 539.348267,533.776611 542.878174,562.139160 
z"/>
</svg>