<svg version="1.1" id="Layer_1" xmlns="http://www.w3.org/2000/svg" xmlns:xlink="http://www.w3.org/1999/xlink" x="0px" y="0px"
	 width="100%" viewBox="0 0 528 1024" enable-background="new 0 0 528 1024" xml:space="preserve">
<path fill="#000000" opacity="1.000000" stroke="none" 
	d="
M318.911774,576.592163 
	C317.346222,580.476379 320.806671,579.082520 321.779358,579.202026 
	C327.995575,579.966309 333.179169,582.771790 337.885468,586.639954 
	C339.394440,587.880127 341.080048,589.090881 341.605804,591.771912 
	C333.951263,596.357788 325.866425,597.054077 317.459656,594.133728 
	C312.732544,592.491760 308.206848,590.288330 304.274750,587.127319 
	C302.197876,585.457764 300.351776,584.716614 297.814270,587.482727 
	C305.295593,590.138489 312.115936,593.399536 313.884399,601.941895 
	C308.213318,604.599182 298.686340,602.358215 293.207489,597.129089 
	C291.522980,595.521301 290.018280,593.726074 288.412689,592.034302 
	C287.211853,590.769043 285.951172,589.725525 283.937683,591.528198 
	C285.313904,594.489136 288.289246,596.034546 290.041290,598.565063 
	C291.009369,599.963257 292.304230,601.496948 290.532440,602.919983 
	C288.673065,604.413391 287.668579,602.729736 286.602234,601.348816 
	C277.060852,588.992676 261.395752,588.796387 251.227844,600.895508 
	C250.019272,602.333618 248.796326,604.239075 246.830429,602.549072 
	C244.972214,600.951599 247.161926,599.661255 247.879303,598.320251 
	C249.267212,595.725830 252.377106,594.418884 253.425659,591.234619 
	C249.931747,589.290771 248.608475,592.339050 247.358490,593.907227 
	C243.009506,599.363525 237.241531,601.874512 230.634155,602.937988 
	C228.533920,603.276001 225.878601,604.164307 224.535416,602.207397 
	C222.927017,599.864136 225.361099,597.910400 226.543884,596.030212 
	C229.548080,591.254639 234.548752,589.299133 239.849609,587.381470 
	C236.720078,584.449707 234.405685,585.644348 231.795181,587.669678 
	C222.575363,594.822876 212.342239,597.663940 200.863342,594.170166 
	C199.176788,593.656860 197.228775,593.362061 196.072540,591.001404 
	C201.789139,582.983643 210.142014,579.644653 220.394302,578.802917 
	C218.252502,575.733337 216.687500,574.976624 213.434174,575.979553 
	C203.213989,579.130127 192.854187,580.219910 182.791779,575.094849 
	C181.038330,574.201843 179.065308,573.553467 178.114944,571.595947 
	C181.724869,564.251831 188.412659,562.061279 201.575119,563.880920 
	C199.886032,560.589966 199.886032,560.589966 196.573029,561.132263 
	C183.780930,563.226440 167.275528,554.337280 163.221375,542.869751 
	C172.980347,538.144836 181.112564,542.034058 189.139786,547.827271 
	C187.927475,542.749268 184.897736,540.756653 180.135513,539.741394 
	C168.390152,537.237183 159.629883,526.878784 158.226242,514.242310 
	C167.781525,512.391663 173.651505,517.858276 179.050308,524.572510 
	C179.354919,519.098022 179.194794,518.822998 174.676865,516.794556 
	C166.019516,512.907593 157.956039,494.984497 160.845810,486.243622 
	C161.871048,483.142517 163.744980,484.239716 165.569427,485.077362 
	C169.972626,487.099091 173.653259,491.647034 177.579010,499.759247 
	C178.217346,496.216125 177.618393,493.317474 175.203552,490.199280 
	C169.270767,482.538483 166.273056,473.844452 169.045410,463.999847 
	C169.573868,462.123260 169.766663,460.014984 172.145737,458.339966 
	C178.129791,461.844513 180.894547,467.614777 182.612961,474.402405 
	C184.630997,471.884827 184.698288,469.437927 184.044708,466.443573 
	C180.531815,450.349121 184.326981,439.233673 195.859207,431.455139 
	C200.406540,436.929688 198.719467,443.309662 198.202408,450.038452 
	C202.016373,448.440430 202.755264,445.217865 203.976471,442.540710 
	C207.319275,435.212799 212.583420,429.941284 220.031509,426.906616 
	C221.353470,426.368011 222.885345,425.374329 224.259903,426.560181 
	C225.668732,427.775665 224.780899,429.346954 224.393021,430.753113 
	C222.920197,436.092285 219.453674,440.103516 215.272324,443.960632 
	C218.231522,446.204559 222.338791,444.476288 224.914703,447.006622 
	C221.643509,455.060822 211.816849,460.125824 202.984497,457.156158 
	C197.732513,455.390350 195.726547,457.657959 193.491699,461.158875 
	C192.427368,462.826080 191.177231,464.403687 190.707443,466.923431 
	C197.348724,462.850311 204.091629,460.271027 211.788834,461.025940 
	C210.898972,472.394318 200.088211,479.109375 186.199646,477.380096 
	C183.672821,481.190002 183.431396,485.734833 182.545090,490.242462 
	C185.778336,484.504089 190.755707,480.996826 196.629440,478.654114 
	C198.114151,478.061920 199.816788,477.108856 201.284653,478.600800 
	C202.510727,479.846985 201.922882,481.419067 201.549973,482.864410 
	C199.427689,491.090210 194.613205,497.105560 186.905640,500.791809 
	C185.377457,501.522705 184.001297,502.190094 182.737503,499.893799 
	C179.897125,506.197174 181.531845,511.975250 182.589554,519.120667 
	C183.469452,508.800110 188.184433,502.452454 196.099945,497.554199 
	C199.598557,502.449158 198.561600,507.411499 197.754181,512.172974 
	C196.915695,517.117493 194.048264,521.249207 190.273193,524.292603 
	C186.020477,527.721130 186.010803,531.284241 188.261978,535.574524 
	C189.249420,537.456421 190.167145,539.374878 191.351059,541.233765 
	C189.800354,533.317200 192.227661,526.372986 196.178665,519.802124 
	C197.007019,518.424561 197.840469,516.614563 199.839523,516.906555 
	C201.497498,517.148804 202.043991,518.845947 202.614563,520.198975 
	C205.709274,527.537415 206.451797,534.977905 203.361221,542.535278 
	C202.730865,544.076660 202.118958,545.625549 201.492508,547.168518 
	C198.685623,554.082153 200.746841,558.526489 208.702271,561.876526 
	C207.080063,556.040222 205.195312,550.513855 205.706039,544.637695 
	C205.849716,542.984802 205.849350,541.282410 206.273788,539.698914 
	C207.041489,536.834778 208.738037,535.591370 211.290253,537.966370 
	C218.330505,544.517761 222.733490,552.206055 221.219040,562.271545 
	C221.070923,563.255920 220.739609,564.211365 220.553757,565.191711 
	C219.091705,572.903564 221.469498,575.931824 230.555496,577.093567 
	C226.587982,569.535156 221.877609,562.382568 224.731155,553.596924 
	C232.431488,554.224854 239.434357,560.913574 241.225464,569.416748 
	C241.770401,572.003784 241.937271,574.704224 241.977722,577.357239 
	C242.081772,584.178040 242.755554,584.829468 250.835510,584.572388 
	C248.668808,580.186279 245.300888,576.571289 244.583038,571.784302 
	C244.271561,569.707153 242.781342,567.247803 244.770279,565.665100 
	C247.050980,563.850281 249.144760,566.061340 251.045456,567.202576 
	C257.106689,570.841919 259.743927,576.789490 260.814606,583.347595 
	C261.411255,587.002136 263.032532,587.926636 266.404358,587.968140 
	C275.232117,588.076904 275.203583,588.187378 277.756378,579.312744 
	C279.503204,573.239990 283.223297,568.669617 288.809753,565.772583 
	C292.591431,563.811462 294.152985,564.957581 293.718262,569.134949 
	C293.093933,575.134399 290.030212,579.997070 286.006592,584.512451 
	C292.998016,585.643188 295.713013,583.594116 295.724670,577.203430 
	C295.743164,567.072632 299.336945,559.065430 308.626984,554.121460 
	C311.879669,552.390442 313.253479,553.484314 313.489227,556.848328 
	C313.912872,562.894165 312.108124,568.331482 309.022552,573.445557 
	C308.120758,574.940125 306.567444,576.094788 306.368927,578.389893 
	C310.591980,577.060181 313.987976,574.713196 317.705597,572.494507 
	C316.824341,564.797180 314.466827,557.135498 317.857056,549.466675 
	C319.640839,545.431641 321.834015,541.792053 325.107697,538.830688 
	C328.934937,535.368530 330.319122,535.856140 331.540833,541.032227 
	C332.726410,546.055237 332.102020,550.967651 330.691772,555.829712 
	C330.050385,558.041077 329.307617,560.223022 328.562500,562.570557 
	C336.493164,559.593506 339.227020,553.348877 335.731842,546.067444 
	C331.840118,537.959900 331.551910,529.739075 334.362061,521.315430 
	C334.728546,520.216858 335.268616,519.163330 335.837555,518.150330 
	C336.145935,517.601257 336.684845,517.181702 337.461548,516.328064 
	C345.039612,521.403748 345.879425,529.426636 347.162140,537.311401 
	C351.741119,532.740356 352.254730,529.558167 348.067139,525.486023 
	C341.804382,519.395935 338.665527,512.267944 339.062408,503.616272 
	C339.148193,501.746338 338.863403,499.263062 341.260956,498.512238 
	C343.205566,497.903290 344.693970,499.383820 346.044403,500.647034 
	C350.525970,504.839111 353.985229,509.611267 354.583313,517.073730 
	C356.790558,511.865540 355.828094,507.508026 355.827698,503.245453 
	C343.558258,500.706818 332.340912,484.657440 337.580994,476.885773 
	C331.860352,473.334442 326.907410,469.093109 325.300079,461.338409 
	C333.137726,459.602417 339.578369,462.877106 346.823456,466.783630 
	C345.344147,461.938354 342.763062,459.371155 340.345856,456.694397 
	C338.780731,454.961212 337.282349,456.296112 335.804932,456.804047 
	C326.600311,459.968658 317.352509,456.375244 312.362213,447.500549 
	C314.716858,444.582642 318.519562,445.768951 321.805542,444.286530 
	C318.328888,438.623657 312.073364,434.230499 312.853668,425.851105 
	C326.346466,427.948151 331.644104,438.543884 337.632355,448.513397 
	C339.527222,442.600769 337.363190,436.553589 341.419281,431.835907 
	C351.506042,436.968262 356.801117,448.513367 354.950958,460.051849 
	C354.298096,464.123230 351.876587,468.296539 354.710236,473.188354 
	C357.995972,467.662170 359.153870,460.904114 366.420593,458.365234 
	C370.661194,467.860962 370.432312,476.876495 365.612732,485.765930 
	C364.276337,488.230804 362.854156,490.658478 360.817352,492.729401 
	C359.442474,494.127319 360.128052,496.192413 360.449982,498.614105 
	C364.170258,492.243561 367.728302,486.287048 375.066315,483.994812 
	C378.028503,489.239197 377.025482,494.201660 375.788116,498.967926 
	C373.882263,506.308960 369.793823,512.572388 363.309692,516.443542 
	C359.479431,518.730286 357.753265,521.261658 357.955658,525.816406 
	C361.818848,520.390747 366.116089,515.813354 372.515503,514.024597 
	C374.719177,513.408630 377.389984,512.583374 379.120178,514.539124 
	C380.639954,516.257080 378.960449,518.327759 378.286346,520.133789 
	C374.288483,530.844788 367.356842,538.390564 355.618469,540.352661 
	C351.208405,541.089722 349.242706,543.871094 347.390747,549.013977 
	C354.260590,544.178040 360.089386,539.782288 367.812866,540.845520 
	C370.226044,541.177734 372.822418,541.039185 375.161133,543.499084 
	C369.894012,552.592285 362.326294,558.432312 351.902771,560.266846 
	C347.840973,560.981689 343.719879,561.839478 339.505890,560.959351 
	C337.847748,560.612976 336.667175,561.436890 336.248871,563.705994 
	C345.506042,561.973816 353.846008,562.933777 360.660950,571.446289 
	C353.320740,576.634277 345.719269,579.299072 337.201416,578.656189 
	C332.580627,578.307495 328.021729,577.109192 323.443024,576.250977 
	C321.989197,575.978455 320.551178,575.263062 318.911774,576.592163 
M353.769531,488.552795 
	C354.476227,489.273621 354.099365,490.766876 355.526306,491.091095 
	C352.373077,475.147766 353.161530,477.852753 341.699677,478.697815 
	C346.144226,481.472443 350.596283,483.747650 353.769531,488.552795 
z"/>
<path fill="#000000" opacity="1.000000" stroke="none" 
	d="
M261.871368,506.452515 
	C266.663483,518.049561 261.904022,527.019775 249.965866,529.645386 
	C244.419266,530.865295 239.028397,530.462524 233.852249,528.120178 
	C228.104309,525.519043 225.492828,521.152283 225.980469,514.902954 
	C228.195175,514.664368 230.467239,514.384216 232.746353,514.184509 
	C234.861877,513.999023 236.619781,514.388245 237.672119,516.638672 
	C239.693497,520.961365 243.331970,521.545959 247.346054,520.056824 
	C251.019485,518.694031 252.177597,515.539856 251.564148,511.924072 
	C250.815491,507.511505 247.594696,506.141998 243.502930,506.126465 
	C240.321686,506.114380 236.825577,506.557526 237.035751,501.579376 
	C237.162735,498.572205 237.886810,496.357025 241.546814,496.468628 
	C242.857681,496.508606 244.187027,496.148407 245.498657,495.917969 
	C248.899368,495.320526 250.826309,493.413727 250.895157,489.830353 
	C250.951553,486.895966 250.072983,484.397369 247.036362,483.585541 
	C243.837982,482.730408 240.757782,482.958740 238.610046,486.127930 
	C236.745636,488.878967 229.889877,490.513489 227.259796,488.930573 
	C225.567276,487.911957 225.978134,486.418152 226.408646,484.956116 
	C228.317154,478.474518 233.017044,475.050049 239.337616,473.929199 
	C243.426941,473.204010 247.642212,473.377075 251.711014,474.613800 
	C263.158234,478.093262 266.491608,488.713226 259.077759,498.090973 
	C258.378326,498.975647 257.664612,499.849030 256.942688,500.746033 
	C258.641571,502.674408 260.161438,504.399628 261.871368,506.452515 
z"/>
<path fill="#000000" opacity="1.000000" stroke="none" 
	d="
M299.808777,484.651001 
	C302.356628,485.524445 302.755707,484.221344 302.777557,482.475220 
	C302.802551,480.479523 302.862335,478.483765 302.853302,476.488251 
	C302.837891,473.091949 305.169800,472.986084 307.644592,472.959961 
	C310.222565,472.932739 311.806580,473.923584 311.796478,476.712738 
	C311.758087,487.334167 311.638580,497.956177 311.715332,508.576752 
	C311.745819,512.798096 309.527924,514.045471 306.063629,512.890503 
	C303.811707,512.139709 302.052856,512.411865 299.910583,513.021118 
	C294.112610,514.670105 289.797119,512.454224 287.383087,506.908020 
	C285.064270,501.580597 285.304138,496.159302 287.336182,490.862671 
	C289.227905,485.931671 293.525116,483.842987 299.808777,484.651001 
M295.371704,503.903687 
	C296.445740,505.803741 297.824493,507.103760 300.213226,506.229126 
	C302.511322,505.387787 302.867798,503.485596 302.813477,501.361115 
	C302.762451,499.365387 302.793854,497.366608 302.705048,495.372925 
	C302.613739,493.322479 301.652679,491.817627 299.521759,491.510437 
	C297.313660,491.192017 296.141296,492.637878 295.461395,494.468445 
	C294.401398,497.322510 293.784241,500.233856 295.371704,503.903687 
z"/>
<path fill="#000000" opacity="1.000000" stroke="none" 
	d="
M279.077393,428.945435 
	C279.382324,430.714417 280.572571,432.087952 279.187897,433.710266 
	C274.745850,433.159698 272.529236,427.790649 268.157349,427.768127 
	C263.899841,427.746216 261.669800,432.637238 257.318115,433.891510 
	C255.854797,430.997162 257.414948,428.508728 258.277283,426.259674 
	C259.848572,422.161652 259.233490,419.330963 255.206558,417.196228 
	C253.223480,416.144989 251.346207,414.697937 249.400452,411.228088 
	C259.169037,412.111450 266.177643,409.446899 267.188080,398.627930 
	C271.770691,402.066223 271.109039,407.357330 274.340332,409.780396 
	C277.675171,412.281036 282.573059,409.511780 286.759186,412.587738 
	C282.701752,417.285675 273.747009,419.813110 279.077393,428.945435 
z"/>
<path fill="#000000" opacity="1.000000" stroke="none" 
	d="
M276.023132,485.151428 
	C276.891541,485.292206 277.404358,485.373901 277.874817,485.267853 
	C284.958618,483.670776 285.777374,484.421967 284.759827,491.633270 
	C277.040771,493.891327 277.040161,493.891327 277.001007,502.357605 
	C276.991791,504.352844 276.913910,506.351227 276.998291,508.342651 
	C277.153320,512.002808 275.395935,513.307922 271.837921,513.276672 
	C268.235046,513.244934 267.837219,511.148804 267.869568,508.372314 
	C267.935516,502.719696 267.888947,497.065674 267.968109,491.413330 
	C268.064209,484.549500 268.389465,484.308502 276.023132,485.151428 
z"/>
</svg>