<svg version="1.1" id="Layer_1" xmlns="http://www.w3.org/2000/svg" xmlns:xlink="http://www.w3.org/1999/xlink" x="0px" y="0px"
	 width="100%" viewBox="0 0 528 1024" enable-background="new 0 0 528 1024" xml:space="preserve">
<path fill="#000000" opacity="1.000000" stroke="none" 
	d="
M219.802856,578.140137 
	C218.121063,575.244873 216.046066,575.236206 213.070908,576.143311 
	C202.442078,579.384094 191.816055,580.122864 181.555267,574.519348 
	C177.083755,572.077393 176.839752,570.589539 180.964188,567.426758 
	C187.222366,562.627686 194.257019,561.749817 203.077423,564.697205 
	C200.617752,561.850708 200.013214,560.319092 196.719681,560.941650 
	C183.566711,563.427673 167.890610,554.881226 163.137314,542.911438 
	C173.199890,537.907166 181.330872,542.108032 189.195297,548.177734 
	C187.109299,541.857178 186.656494,541.433289 180.588287,540.025696 
	C168.334076,537.183167 158.453354,525.730835 158.536377,514.466309 
	C165.440582,512.660706 169.726410,514.720703 179.522614,524.759399 
	C179.477005,521.105652 178.754395,518.794922 175.358856,517.040344 
	C165.712265,512.055786 159.206482,498.414551 160.752243,487.837677 
	C161.271515,484.284607 162.898666,483.647766 165.841431,485.263641 
	C171.704300,488.483002 175.155502,493.624847 177.435211,500.332306 
	C178.179031,496.287170 177.468704,493.502075 175.223938,490.428436 
	C169.546158,482.654266 166.429779,473.965820 169.045242,464.124512 
	C169.544739,462.245056 169.667130,460.116638 172.074249,458.391449 
	C178.372986,462.017334 181.241196,467.969635 182.535309,475.157166 
	C184.643478,472.207367 184.720108,469.399261 183.937286,466.054321 
	C180.714691,452.283966 183.355637,440.309052 195.808807,431.292877 
	C200.534973,436.910461 198.461227,443.482086 198.888016,449.984039 
	C205.812653,440.241028 210.006119,427.857452 224.922165,426.114380 
	C224.793228,433.815277 220.546265,438.832458 216.020569,443.804413 
	C218.504669,446.385498 222.427414,444.597473 224.700073,446.993896 
	C221.877441,454.867065 211.553116,460.253052 202.960495,457.194763 
	C197.679108,455.315033 195.703461,457.686981 193.481934,461.144653 
	C192.415680,462.804260 191.526718,464.577820 189.876495,467.509644 
	C197.304871,462.818359 204.052155,460.248230 211.746735,461.010071 
	C210.938080,472.236328 199.149033,479.658142 186.154083,477.507172 
	C183.722336,481.330536 183.333206,485.806702 182.518494,490.283142 
	C185.915482,484.398224 191.016174,480.696045 197.173523,478.450195 
	C201.238647,476.967468 202.639725,478.209869 201.667191,482.329437 
	C199.627213,490.970642 194.531052,497.227081 186.511597,501.062561 
	C185.038544,501.767090 185.011978,501.711548 182.718658,500.283630 
	C179.767273,506.140015 181.956467,512.006958 182.462463,517.883240 
	C183.272064,508.638031 188.038620,502.254486 196.016388,497.954651 
	C199.705322,503.230835 198.892014,512.904053 194.456573,519.342590 
	C193.420181,520.847107 192.406235,522.531494 190.973465,523.569153 
	C185.635620,527.434814 185.981888,531.929871 188.982376,536.961060 
	C189.808456,538.346252 190.410294,539.865173 191.507233,542.133850 
	C190.391769,530.106262 193.068222,521.956787 199.845856,516.466492 
	C205.495651,522.920227 205.975708,530.450134 204.657318,538.307373 
	C204.250443,540.732361 203.172958,543.069214 202.229065,545.375366 
	C198.582413,554.285339 199.356613,556.610901 208.603668,562.218872 
	C206.595734,553.440430 203.251526,545.073242 207.837036,536.783569 
	C215.205185,538.019104 221.966263,551.247986 221.504105,558.565369 
	C221.368195,560.717224 221.052643,562.868652 220.663193,564.991638 
	C219.235428,572.774719 221.266190,575.490173 230.449020,577.127747 
	C226.535019,569.536194 222.169312,562.297485 224.665802,553.546570 
	C232.803986,554.696350 239.294388,561.104492 241.192398,569.740906 
	C241.725098,572.164856 241.962799,574.683777 242.051758,577.169312 
	C242.298080,584.051453 243.280502,584.971375 251.430328,584.440186 
	C247.571167,580.078247 245.001450,575.531860 244.221558,570.212036 
	C243.983078,568.585327 243.292709,566.734985 244.841415,565.534241 
	C246.432999,564.300232 248.005157,565.522522 249.461945,566.270874 
	C256.292908,569.779907 259.676941,575.841736 260.705353,583.032471 
	C261.315643,587.299866 263.288422,588.337158 266.991364,587.962891 
	C267.981720,587.862793 268.999908,587.842896 269.987946,587.948486 
	C274.207764,588.399902 276.351715,586.743286 277.073151,582.351013 
	C278.267700,575.078491 282.028015,569.300171 288.816101,565.935547 
	C292.856110,563.933105 293.731903,564.692688 293.527039,569.237793 
	C293.258392,575.197388 290.045746,579.785400 286.220459,584.281982 
	C293.049652,585.509766 295.615997,583.456970 295.716766,577.247681 
	C295.923553,564.506226 301.792389,555.934753 312.592010,553.296143 
	C315.468292,562.756470 311.240356,570.282654 305.725037,578.405640 
	C310.622650,577.036621 314.077637,574.718323 317.955231,572.189087 
	C314.276550,558.162659 315.359100,545.369995 329.235077,535.869080 
	C334.322296,545.308594 331.491791,553.996338 328.561920,563.276733 
	C333.031372,560.967773 335.429993,557.527039 337.559998,554.067749 
	C339.305664,551.232666 336.864319,548.642334 335.717804,546.225769 
	C332.187836,538.785400 331.741821,531.169495 333.783081,523.333313 
	C334.404419,520.948059 335.129456,518.514709 337.726074,516.473206 
	C345.562988,522.498901 346.623291,530.937439 346.528625,539.702881 
	C348.243744,537.461792 350.368622,532.655151 351.040344,530.651062 
	C351.784973,528.429504 350.122772,527.600037 349.054443,526.507385 
	C344.079102,521.418701 339.850250,515.977112 339.145630,508.525146 
	C338.814240,505.020233 338.783234,501.614227 340.340790,498.432220 
	C347.071899,499.344696 353.184937,506.971497 354.615479,515.846375 
	C356.255920,512.409180 356.283997,512.082458 355.704010,503.178223 
	C343.583649,500.249329 332.624298,485.651550 336.892609,476.547119 
	C331.559174,472.882233 326.524384,468.865814 325.459564,461.314636 
	C333.200317,459.511688 339.457031,463.150085 346.501740,466.384399 
	C345.310760,461.782410 342.637207,459.086060 339.964844,456.470917 
	C338.388458,454.928314 336.867828,456.613251 335.391357,457.108673 
	C326.458405,460.105957 317.176239,456.158447 312.768921,447.323547 
	C315.058960,444.607361 318.791687,446.063416 321.831573,444.206970 
	C318.051483,438.908997 312.415649,434.398163 313.014740,426.257812 
	C326.568237,427.901154 331.517303,438.702087 337.945984,449.541565 
	C339.576416,442.557709 337.339996,436.486603 341.468262,431.841309 
	C351.654358,437.199829 356.848236,448.701874 354.963226,460.618378 
	C354.345093,464.526184 351.857513,468.516418 354.844482,473.253876 
	C357.061981,469.295013 358.062256,465.172424 360.742920,462.046173 
	C362.029510,460.545807 363.290253,458.511993 365.481781,458.783997 
	C367.957275,459.091278 367.936340,461.670135 368.407623,463.499725 
	C371.053253,473.769592 368.525513,483.043793 362.163269,491.183655 
	C360.384613,493.459229 359.822205,495.372711 360.578125,498.722351 
	C363.316101,493.364532 366.226318,488.801300 370.945099,485.809875 
	C374.867859,483.323029 376.420166,483.814972 376.776184,488.438477 
	C377.682404,500.208160 372.929321,509.727600 363.413300,516.330261 
	C359.862854,518.793701 357.790192,521.111267 357.871490,525.597229 
	C363.498383,518.891174 369.079620,512.320923 379.087891,514.060425 
	C379.488922,525.130676 369.334503,537.038391 357.044128,540.087280 
	C353.198975,541.041138 349.469696,541.819275 348.787262,547.017090 
	C350.819031,547.231018 352.022430,545.725647 353.385101,544.817261 
	C358.957031,541.102844 364.906921,539.861450 371.478973,541.504761 
	C374.557678,542.274475 375.493683,543.510254 373.437531,546.315674 
	C365.217377,557.531372 354.058411,562.241455 340.424438,560.762207 
	C337.859741,560.483948 337.293793,561.530579 335.755188,563.772278 
	C345.357025,562.152893 353.784332,562.850708 360.429382,571.164612 
	C353.405518,576.940308 345.602875,579.075134 337.166962,578.621582 
	C332.386322,578.364502 327.613068,577.233887 322.935394,576.091614 
	C320.388000,575.469482 318.932098,576.346497 316.660828,578.628601 
	C327.234863,579.463867 335.820038,582.664429 342.197205,591.567627 
	C334.122284,596.212524 326.176544,596.812012 317.943909,594.259521 
	C312.827789,592.673279 308.071930,590.170044 303.843536,586.872192 
	C301.734680,585.227417 300.090454,585.270508 297.503662,587.507690 
	C305.392334,590.063171 311.929474,593.596191 313.994110,602.738647 
	C305.723328,604.030151 298.912384,602.009094 292.950684,596.867859 
	C291.316772,595.458740 289.904388,593.790833 288.407990,592.224792 
	C287.238953,591.001404 286.110199,589.694214 283.931854,591.484924 
	C285.170227,594.301086 287.870209,595.868591 289.619568,598.171021 
	C290.704712,599.599243 292.523346,601.211304 290.494019,602.848083 
	C288.694366,604.299561 287.391235,602.480042 286.571259,601.059448 
	C279.503784,588.814697 258.268097,589.597290 251.298309,600.512329 
	C250.358047,601.984802 248.985214,604.234192 247.019669,602.651794 
	C244.584152,600.690918 247.466690,599.248108 248.376663,597.737610 
	C249.727966,595.494507 252.434433,594.285217 253.355530,591.407837 
	C250.926697,589.217224 249.798767,591.511963 248.690552,592.834717 
	C243.743500,598.739075 237.511398,602.220154 229.862366,603.065308 
	C227.942215,603.277527 225.595932,603.974609 224.372665,601.903442 
	C223.273804,600.042969 224.976883,598.454712 225.888535,596.945068 
	C228.983383,591.820251 234.081604,589.422791 239.709122,587.473328 
	C236.820160,584.423645 234.595184,585.732788 232.132401,587.568176 
	C222.697449,594.599426 212.385529,597.806091 200.697083,594.175415 
	C199.155273,593.696533 197.393875,593.484192 195.901672,591.159119 
	C200.367935,585.136108 206.292007,581.196472 213.916168,579.679138 
	C215.858139,579.292664 217.786438,578.837524 219.802856,578.140137 
M344.473480,480.454529 
	C349.210297,482.859009 352.872223,486.380066 355.459717,491.118896 
	C354.764374,487.461212 353.824524,483.964478 352.847351,480.478210 
	C351.744476,476.543549 348.536072,478.423798 346.175568,478.237183 
	C345.353241,478.172180 342.731628,477.192627 344.473480,480.454529 
z"/>
<path fill="#000000" opacity="1.000000" stroke="none" 
	d="
M230.095276,514.103271 
	C234.916901,508.562744 239.574600,503.346863 244.031525,497.964722 
	C245.382019,496.333801 246.524490,494.351501 247.152725,492.339813 
	C248.369156,488.444641 246.900391,485.286682 243.089417,483.872559 
	C239.329010,482.477112 236.707123,484.376862 235.044662,487.807526 
	C234.155960,489.641449 234.456879,492.395691 231.570694,492.740936 
	C228.787979,493.073792 225.500687,494.042297 223.458099,491.839630 
	C221.407516,489.628326 223.094635,486.739716 224.220825,484.366974 
	C229.409698,473.434875 244.745575,469.940216 254.135498,477.639008 
	C259.028259,481.650513 260.116608,487.010254 258.584961,493.010803 
	C256.641724,500.623810 251.155548,505.864655 246.268448,511.522858 
	C244.481445,513.591736 241.804764,515.121765 241.659393,518.836609 
	C246.302368,520.480103 251.142609,519.634094 255.827560,519.598755 
	C260.150940,519.566101 261.405945,521.414917 261.087524,525.361145 
	C260.875488,527.988953 259.861176,529.292908 257.094116,529.274475 
	C247.100006,529.207764 237.103790,529.334473 227.111465,529.183167 
	C222.976349,529.120544 221.442841,524.771606 224.209335,520.690430 
	C225.781174,518.371643 227.952774,516.459412 230.095276,514.103271 
z"/>
<path fill="#000000" opacity="1.000000" stroke="none" 
	d="
M307.209045,512.425903 
	C305.338348,511.408569 303.977875,512.212769 302.579926,512.688416 
	C300.293213,513.466614 298.026825,513.471130 295.781738,512.498535 
	C290.391571,510.163483 287.412323,501.987457 289.132690,494.225983 
	C290.632324,487.460419 294.619598,484.422638 301.600769,484.732819 
	C302.416199,484.769043 303.230499,484.830200 304.116974,484.884155 
	C305.765350,482.258331 305.647003,479.414886 305.504089,476.643799 
	C305.364838,473.944611 306.744171,473.113403 309.092010,473.071930 
	C311.390900,473.031342 313.774139,473.253510 313.807281,476.184937 
	C313.934967,487.469696 314.098785,498.763397 313.759247,510.039032 
	C313.641327,513.955322 310.181488,513.020142 307.209045,512.425903 
M298.633240,504.792542 
	C303.623596,506.629120 305.448273,505.541779 305.644653,500.539154 
	C305.709045,498.899109 305.700653,497.241943 305.540222,495.610840 
	C305.323486,493.407501 304.044464,491.831421 301.845978,491.614014 
	C299.554138,491.387451 298.057098,492.984528 297.608459,495.012177 
	C296.935486,498.053772 296.671326,501.194489 298.633240,504.792542 
z"/>
<path fill="#000000" opacity="1.000000" stroke="none" 
	d="
M257.872070,426.993652 
	C259.973236,422.536072 259.077911,419.428802 255.037766,417.052277 
	C253.268997,416.011871 251.386368,414.813416 249.796707,411.491882 
	C259.208832,412.018890 266.247070,409.323761 267.471527,398.698212 
	C271.736816,402.415741 271.179169,407.716492 274.565979,409.990906 
	C277.761353,412.136810 282.422729,409.758118 286.108154,412.285919 
	C284.414917,416.621124 278.681488,416.997833 277.596680,421.089172 
	C276.535553,425.091309 279.852966,428.872406 279.672150,433.084595 
	C276.624237,433.987946 275.070221,431.750641 273.505127,430.371765 
	C269.658936,426.983185 266.271851,427.261200 262.551300,430.491516 
	C261.052856,431.792511 259.653748,433.835846 257.039551,433.123871 
	C256.015991,430.989899 257.532043,429.242767 257.872070,426.993652 
z"/>
<path fill="#000000" opacity="1.000000" stroke="none" 
	d="
M271.234863,501.090637 
	C271.218933,503.897949 271.118286,506.234009 271.206390,508.562927 
	C271.330963,511.855377 269.601929,512.943909 266.582458,512.951721 
	C263.401184,512.959961 262.707703,511.172211 262.739990,508.433807 
	C262.814697,502.102478 262.940765,495.761841 262.682587,489.439850 
	C262.498016,484.920593 265.052399,484.246735 268.366852,485.048401 
	C270.700409,485.612823 272.606812,485.678711 274.969330,484.870544 
	C280.536926,482.966003 285.125458,486.014618 286.420074,491.880585 
	C287.696960,497.666229 286.969147,503.499695 286.921814,509.317383 
	C286.895203,512.586487 284.634216,512.948914 282.115204,512.968384 
	C279.234039,512.990662 278.553894,511.373718 278.549622,508.767883 
	C278.542755,504.609711 278.222229,500.451172 277.999695,496.294678 
	C277.884583,494.144501 277.336182,492.205170 274.675293,492.176666 
	C271.679260,492.144531 271.256531,494.257446 271.249725,496.616882 
	C271.245911,497.949982 271.239594,499.283081 271.234863,501.090637 
z"/>
</svg>