<svg version="1.1" id="Layer_1" xmlns="http://www.w3.org/2000/svg" xmlns:xlink="http://www.w3.org/1999/xlink" x="0px" y="0px"
	 width="100%" viewBox="0 0 528 1024" enable-background="new 0 0 528 1024" xml:space="preserve">
<path fill="#000000" opacity="1.000000" stroke="none" 
	d="
M352.995117,518.989258 
	C360.350830,519.097107 362.862885,519.697937 367.262970,522.401794 
	C363.773468,529.695190 353.566010,535.049133 344.381927,534.028870 
	C341.292816,533.685791 339.556519,534.101990 339.658752,538.307007 
	C348.491791,533.846680 356.357910,535.938904 364.755707,541.115784 
	C358.002075,545.975098 351.650757,549.304871 343.861847,550.399048 
	C348.125641,552.810852 352.940643,553.938721 356.267944,558.580688 
	C349.278961,562.106995 342.561859,564.768555 334.211365,563.603516 
	C338.222473,566.415894 341.880432,568.732727 344.102051,573.273193 
	C337.734009,576.806519 331.154907,576.935791 323.951874,575.742554 
	C326.526306,579.024414 329.893219,581.172180 331.129944,585.198608 
	C324.709961,588.430359 318.394745,587.239868 311.806915,585.494385 
	C312.904053,589.815002 316.551544,592.368286 316.329742,596.477844 
	C308.340485,598.635620 294.849487,593.689880 290.341217,586.342712 
	C288.342468,583.085327 286.280640,582.619507 283.021637,583.270691 
	C271.607758,585.551392 260.170837,585.751160 248.855453,582.752136 
	C245.743225,581.927307 244.790955,583.804382 243.361649,585.706055 
	C236.908386,594.292053 227.945572,597.160400 217.407043,597.267822 
	C216.918091,592.388733 221.096725,589.945740 222.011765,585.687134 
	C215.365875,586.907410 208.905197,588.775818 202.386368,585.712097 
	C203.040680,581.906738 206.322662,580.094666 207.848831,576.678162 
	C201.654831,575.879639 195.104843,577.485962 189.484879,573.463501 
	C190.735001,569.376587 194.403427,567.615662 197.215317,564.522827 
	C190.169006,563.981689 183.551361,562.634521 177.198654,558.918762 
	C183.544571,551.526611 191.333618,549.792664 200.098267,550.169556 
	C197.621246,546.354614 194.987320,549.758423 192.595871,549.804932 
	C189.783035,549.859558 186.975571,550.579956 184.217224,549.559570 
	C181.410324,548.521301 178.544418,547.562561 175.897614,546.195007 
	C173.479889,544.945740 170.538971,544.270508 168.896912,541.065918 
	C176.704529,536.110840 184.558792,533.697205 193.358093,538.625427 
	C192.838684,533.903076 192.838684,533.903076 188.895584,534.138428 
	C178.487640,534.759460 171.147400,531.384583 165.228165,523.256714 
	C171.239838,517.013550 181.006195,518.216370 188.871414,523.522644 
	C188.929031,519.520081 188.931015,519.463501 185.278152,519.335510 
	C174.043243,518.941956 167.809738,511.859009 162.149307,502.202789 
	C172.573105,499.236908 180.139267,502.948212 186.937408,509.485565 
	C188.184662,504.884918 188.090881,504.705261 184.027863,503.648651 
	C174.462280,501.161041 166.057175,492.815613 163.340775,482.685181 
	C173.910873,482.098511 181.705383,486.203125 187.092209,495.164062 
	C189.639786,489.311981 189.510330,489.523071 184.028595,487.032684 
	C174.688889,482.789734 170.470352,474.472626 166.961197,465.352386 
	C176.098419,463.721405 184.047104,469.241638 189.713089,480.592041 
	C192.800110,474.795532 192.742325,474.564514 187.321091,471.022736 
	C179.535492,465.936279 174.006104,454.764404 175.194061,445.579956 
	C185.390167,449.092987 192.218887,455.298584 194.338562,466.127045 
	C197.330765,462.191162 196.140549,459.427582 193.316788,455.930267 
	C187.036850,448.152222 184.312088,439.094727 186.280136,428.343231 
	C195.203598,431.231506 198.063538,438.868927 202.387497,447.227295 
	C204.557144,432.639618 212.385620,424.255859 224.687164,419.062958 
	C226.301071,424.890717 224.509308,429.772186 222.759995,434.506500 
	C220.057785,441.819611 215.894485,448.170227 209.243073,452.637634 
	C205.940964,454.855469 203.016129,457.468018 201.621353,461.889069 
	C211.890656,453.245575 219.316940,451.080994 227.144257,454.311157 
	C227.144257,454.745789 227.347610,455.461029 227.114716,455.656464 
	C219.892166,461.717743 217.352036,470.743134 214.263000,478.827271 
	C212.264954,484.056213 208.162292,490.071381 211.188126,496.630798 
	C211.254105,496.773834 211.293839,496.987640 211.235977,497.120697 
	C207.789673,505.047119 212.511169,513.126526 210.778656,521.377869 
	C215.103851,522.009277 215.350098,525.726013 215.997650,529.002197 
	C216.418533,531.131592 218.163803,532.722961 218.678879,534.162292 
	C221.273209,541.411926 229.568100,542.841125 232.804947,549.125977 
	C233.159164,549.813660 234.024277,550.869690 234.468430,550.785400 
	C241.554352,549.440491 244.043106,554.902588 246.878448,559.375122 
	C249.893600,564.131287 250.076004,569.430237 248.167297,574.767273 
	C247.955612,575.359253 248.005676,576.044800 247.885574,577.125977 
	C256.785248,580.414001 265.865936,580.061340 274.970062,579.432312 
	C275.963837,579.363708 276.944214,579.118103 277.934875,578.984741 
	C284.917297,578.044983 284.917603,578.047546 283.839539,570.980591 
	C282.711700,563.587585 287.224274,552.932129 294.088959,551.693787 
	C299.688324,550.683716 300.814270,545.579712 304.456329,544.264526 
	C309.847504,542.317810 310.669281,537.480957 313.752747,534.168274 
	C315.588043,532.196533 315.927338,529.864502 316.891174,527.624695 
	C319.248657,522.146484 321.843414,517.055115 321.988342,510.678955 
	C322.048492,508.031921 323.090332,505.337311 322.266418,502.380249 
	C321.533600,499.750092 320.617981,496.907410 322.452698,494.205414 
	C322.779785,493.723663 323.039795,492.761688 322.787598,492.386780 
	C319.184998,487.030151 321.588654,479.717896 317.104980,474.735870 
	C314.273224,471.589325 316.343994,466.910858 313.192963,463.809082 
	C310.520203,461.178131 307.639069,458.585754 305.647247,454.375275 
	C315.237518,451.060028 322.690460,454.782288 330.380066,460.038116 
	C329.764923,457.274231 328.063629,455.895966 326.227997,454.600555 
	C315.972595,447.363129 310.339966,437.354950 308.577972,425.049530 
	C308.349152,423.451599 307.693085,421.766754 309.407440,419.920380 
	C321.779480,423.803955 328.396545,432.752319 331.227417,446.856903 
	C334.687012,438.316315 338.772308,432.121124 346.542755,428.187897 
	C347.890106,433.411255 347.772125,438.260834 346.626404,443.040710 
	C345.286682,448.629883 342.569366,453.565857 338.704315,457.880768 
	C336.288330,460.577881 336.374786,460.655304 338.266846,464.856842 
	C340.511505,460.350342 342.018585,455.798706 345.717041,452.570709 
	C349.203949,449.527435 352.634918,446.550812 357.821045,445.304321 
	C358.392334,456.673737 353.997528,465.064606 345.279236,470.827087 
	C341.070648,473.608856 340.626007,476.272339 342.982605,480.770355 
	C346.515381,470.261993 353.665161,464.983673 364.372925,464.236511 
	C364.909821,471.884796 356.504700,483.926636 348.447174,486.797882 
	C344.167542,488.322845 343.389343,490.507446 345.501801,494.766083 
	C351.182678,486.710205 358.518250,482.165192 368.499695,482.349060 
	C367.249390,491.509949 357.663666,501.741119 348.957092,503.099152 
	C345.306061,503.668579 344.460815,505.230560 345.663147,509.309662 
	C352.673218,503.080414 360.180206,499.065857 370.030182,502.216309 
	C366.397430,510.035431 361.025116,515.361328 352.832184,518.818604 
	C349.359070,520.163086 344.844849,517.315674 343.031555,523.349304 
	C347.022766,521.602722 350.008942,520.296021 352.995117,518.989258 
M339.457733,501.506226 
	C337.310608,502.302155 336.159363,503.369751 337.453674,505.918732 
	C338.597168,508.170807 339.279816,510.656830 340.518066,513.986511 
	C341.030640,503.218262 340.802002,493.549500 338.750519,483.429962 
	C337.700928,485.247742 335.591553,484.740479 335.079437,486.581177 
	C337.493988,491.053955 340.454376,495.396606 339.457733,501.506226 
M236.517563,566.633789 
	C232.990814,565.546387 233.409531,569.149414 233.622925,570.032532 
	C234.479477,573.577148 237.778534,573.608276 241.236130,574.447205 
	C239.523529,571.587769 238.192398,569.365234 236.517563,566.633789 
M299.395721,568.435791 
	C298.917572,567.619629 298.837097,566.475403 297.295349,566.208679 
	C295.766357,568.660156 294.182404,571.199768 291.875214,574.898926 
	C295.906464,573.248230 299.506592,573.475037 299.395721,568.435791 
M333.220673,536.903687 
	C332.019928,536.225586 331.490692,534.575562 329.673553,534.437744 
	C330.691620,538.181274 329.966553,541.823914 329.936462,545.522766 
	C331.533112,542.893799 334.059631,540.771484 333.220673,536.903687 
M221.120697,560.143982 
	C218.912506,565.569580 223.526108,565.662720 227.062164,567.792969 
	C225.604599,564.439697 224.566452,561.900391 223.399704,559.421692 
	C222.661575,557.853638 221.977066,558.745728 221.120697,560.143982 
M194.898132,506.627563 
	C195.557480,505.168243 196.216812,503.708954 196.914001,502.165833 
	C195.259003,502.073242 193.851639,501.994507 192.436798,501.923370 
	C192.436798,505.202209 192.436798,508.481079 192.436798,512.601990 
	C193.395370,510.257660 194.008041,508.759277 194.898132,506.627563 
M307.348511,564.938721 
	C307.176178,565.505676 307.003815,566.072632 306.749573,566.908997 
	C313.499207,564.019348 314.002197,562.865845 310.509338,558.171570 
	C309.469727,560.348816 308.507996,562.362976 307.348511,564.938721 
M193.132248,488.837982 
	C192.880829,491.173615 192.629410,493.509247 192.377975,495.844849 
	C193.703690,492.256073 195.971420,489.239258 198.056976,485.951111 
	C195.178696,484.661102 193.239426,484.449188 193.132248,488.837982 
M198.310471,469.032410 
	C197.005478,471.970520 195.980743,474.985779 195.809937,478.312012 
	C197.196640,475.085571 200.279083,473.184204 202.164841,470.167755 
	C200.685730,469.715027 200.009689,468.340179 198.310471,469.032410 
M202.721756,542.823853 
	C202.735229,540.378845 203.204605,537.904114 202.365173,535.457520 
	C197.856918,537.915039 197.904709,539.482544 202.721756,542.823853 
M213.186050,557.348083 
	C212.583359,554.385559 211.980667,551.422974 211.261902,547.889771 
	C205.567810,552.549316 210.758163,554.608765 213.186050,557.348083 
M320.599823,553.700806 
	C320.528870,554.708191 319.526611,555.642883 320.317078,556.940735 
	C322.284912,555.011658 324.639496,553.664612 325.363739,550.961365 
	C324.468903,549.611511 323.629120,548.429443 321.835571,548.276245 
	C321.485931,549.923950 321.147583,551.518372 320.599823,553.700806 
M195.070099,520.147034 
	C191.427017,523.247986 195.441177,525.974243 195.499817,528.937683 
	C195.428925,525.485168 197.042496,522.396179 197.620193,518.805176 
	C196.748688,519.293884 196.179352,519.613159 195.070099,520.147034 
M337.756897,527.788208 
	C338.605621,525.160706 339.587952,522.560486 339.655853,519.628113 
	C338.167603,519.860046 336.943695,520.050720 335.385193,520.293579 
	C336.090424,523.054688 336.728455,525.552795 337.756897,527.788208 
M335.516815,475.773865 
	C336.295898,476.449646 336.015900,477.972626 337.433716,478.230499 
	C335.723053,469.646362 335.723053,469.646362 331.485107,470.670837 
	C332.740143,472.208069 333.970276,473.714783 335.516815,475.773865 
z"/>
<path fill="#000000" opacity="1.000000" stroke="none" 
	d="
M275.287231,495.702881 
	C277.606781,494.233307 277.619965,492.977325 275.252594,492.144165 
	C273.214874,491.427063 271.070038,491.016022 269.026886,490.312042 
	C265.422913,489.070312 262.759216,486.748383 263.016998,482.694611 
	C263.292877,478.355774 266.121033,475.707733 270.280548,474.920288 
	C274.701355,474.083374 278.925690,474.806396 282.516388,478.476257 
	C284.081787,475.332764 286.508759,473.278839 286.829620,469.900574 
	C287.039917,467.686798 289.112366,467.859711 290.773712,467.828644 
	C292.605377,467.794373 294.200348,468.254547 294.250977,470.460052 
	C294.306030,472.856537 294.725250,474.688263 297.700592,474.887512 
	C299.598511,475.014679 299.933624,476.645813 299.915222,478.237152 
	C299.898743,479.661377 299.479462,481.048767 297.848755,481.201263 
	C294.282501,481.534790 293.967407,484.007599 294.398926,486.599945 
	C294.901337,489.618530 292.180756,493.944824 297.711426,495.149902 
	C300.021362,495.653229 300.073547,497.685120 299.787506,499.593781 
	C299.471375,501.702881 297.875732,502.038605 296.090179,502.151093 
	C290.814606,502.483551 287.182953,499.104248 286.803009,493.311981 
	C286.596191,490.159515 286.589783,486.994202 286.451813,483.836456 
	C286.439545,483.555237 286.122620,483.287354 285.728851,482.672150 
	C282.187561,484.355530 278.580750,485.520966 275.153076,481.942688 
	C274.088959,480.831726 272.040649,480.802917 270.843872,482.772095 
	C271.861298,485.231903 274.328735,485.053467 276.262909,485.657013 
	C282.222473,487.516602 285.072479,490.918518 284.192657,495.394775 
	C283.386749,499.494781 278.753601,502.409363 273.272766,502.264191 
	C267.446838,502.109863 263.794586,498.907928 263.313507,493.285217 
	C266.000519,492.521484 268.608856,491.525421 270.877258,494.431580 
	C271.864014,495.695740 273.380463,495.996033 275.287231,495.702881 
z"/>
<path fill="#000000" opacity="1.000000" stroke="none" 
	d="
M258.059052,505.000092 
	C258.006500,511.991302 257.876129,518.483337 257.937988,524.973511 
	C257.980347,529.414673 255.174957,529.430115 251.923019,529.429382 
	C248.622559,529.428650 246.612793,528.799805 246.671585,524.772217 
	C246.831940,513.789368 246.746124,502.800537 246.585312,491.816589 
	C246.523895,487.621490 247.087067,483.288055 240.865173,481.934296 
	C237.579025,481.219299 239.169968,477.081757 239.236450,474.412201 
	C239.297699,471.952515 241.205872,471.658752 243.171906,471.680908 
	C261.179626,471.883850 257.829987,469.083588 258.118317,485.525879 
	C258.229187,491.848358 258.088989,498.175232 258.059052,505.000092 
z"/>
<path fill="#000000" opacity="1.000000" stroke="none" 
	d="
M256.054596,414.173065 
	C257.460999,410.669159 256.385986,408.445587 253.707016,406.555725 
	C251.720245,405.154114 249.463120,403.936005 247.696991,400.368500 
	C256.593872,400.376587 264.079346,398.249939 264.956360,387.552002 
	C269.555420,390.801880 268.460358,396.280823 272.145782,398.518768 
	C275.554810,400.588837 280.011749,398.818115 283.754303,400.866760 
	C282.087799,405.386383 276.534546,405.835999 275.278717,409.973572 
	C274.091797,413.884125 277.538757,417.534424 276.609131,421.747192 
	C273.161285,422.070679 271.436707,419.445801 269.434875,417.753082 
	C266.981201,415.678253 265.062073,415.474884 262.512543,417.510742 
	C260.378174,419.215179 258.360779,421.341675 255.131592,421.737732 
	C253.887726,419.088074 255.725677,416.883362 256.054596,414.173065 
z"/>
</svg>